<?xml version="1.0" encoding="UTF-8" standalone="no"?>
<!-- Created with Inkscape (http://www.inkscape.org/) -->

<svg
   width="1200"
   height="1200"
   viewBox="0 0 317.49999 317.5"
   version="1.1"
   id="svg1"
   inkscape:version="1.4.2 (f4327f4, 2025-05-13)"
   sodipodi:docname="LogoEleva.svg"
   xmlns:inkscape="http://www.inkscape.org/namespaces/inkscape"
   xmlns:sodipodi="http://sodipodi.sourceforge.net/DTD/sodipodi-0.dtd"
   xmlns="http://www.w3.org/2000/svg"
   xmlns:svg="http://www.w3.org/2000/svg">
  <sodipodi:namedview
     id="namedview1"
     pagecolor="#ffffff"
     bordercolor="#000000"
     borderopacity="0.25"
     inkscape:showpageshadow="2"
     inkscape:pageopacity="0.0"
     inkscape:pagecheckerboard="0"
     inkscape:deskcolor="#d1d1d1"
     inkscape:document-units="mm"
     inkscape:zoom="0.51339147"
     inkscape:cx="230.81801"
     inkscape:cy="589.21898"
     inkscape:window-width="1920"
     inkscape:window-height="1017"
     inkscape:window-x="-8"
     inkscape:window-y="-8"
     inkscape:window-maximized="1"
     inkscape:current-layer="layer1" />
  <defs
     id="defs1">
    <clipPath
       clipPathUnits="userSpaceOnUse"
       id="clipPath3929">
      <path
         d="M 0,0 H 612 V 612 H 0 Z"
         clip-rule="evenodd"
         id="path3929" />
    </clipPath>
    <clipPath
       clipPathUnits="userSpaceOnUse"
       id="clipPath3932">
      <path
         d="M 0,0 H 612 V 612 H 0 Z"
         transform="matrix(1.3333333,0,0,-1.3333333,4180,816)"
         clip-rule="evenodd"
         id="path3932" />
    </clipPath>
    <clipPath
       clipPathUnits="userSpaceOnUse"
       id="clipPath3930">
      <path
         d="m 306,433.5908 c -23.1307,-38.6538 -58.8883,-50.9026 -57.3911,-79.8477 1.497,-28.9451 13.4864,-38.5818 31.701,-46.3992 v 31.0382 c 0.7563,11.7817 8.2383,20.365 13.7809,27.2699 5.8153,7.2431 10.8244,12.1037 11.9092,12.1096 1.0848,-0.006 6.0942,-4.8665 11.9092,-12.1096 5.5426,-6.9049 13.0246,-15.4882 13.7809,-27.2699 v -31.0382 c 18.2146,7.8174 30.204,17.4541 31.7013,46.3992 1.4972,28.9451 -34.2604,41.1939 -57.3914,79.8477"
         clip-rule="evenodd"
         id="path3930" />
    </clipPath>
    <clipPath
       clipPathUnits="userSpaceOnUse"
       id="clipPath3934">
      <path
         d="M 0,0 H 612 V 612 H 0 Z"
         clip-rule="evenodd"
         id="path3934" />
    </clipPath>
    <clipPath
       clipPathUnits="userSpaceOnUse"
       id="clipPath3936">
      <path
         d="M 0,0 H 612 V 612 H 0 Z"
         clip-rule="evenodd"
         id="path3936" />
    </clipPath>
    <clipPath
       clipPathUnits="userSpaceOnUse"
       id="clipPath3939">
      <path
         d="M 0,0 H 612 V 612 H 0 Z"
         transform="matrix(1.3333333,0,0,-1.3333333,4180,816)"
         clip-rule="evenodd"
         id="path3939" />
    </clipPath>
    <clipPath
       clipPathUnits="userSpaceOnUse"
       id="clipPath3937">
      <path
         d="m 306,199.004 90.129,62.7469 c 7.8222,5.9885 7.8222,5.9885 15.6109,5.9885 h 16.3676 V 248.5216 L 306,162.8351 183.8928,248.5216 v 19.2178 h 16.3673 c 7.789,0 7.789,0 15.6112,-5.9885 z"
         clip-rule="evenodd"
         id="path3937" />
    </clipPath>
    <clipPath
       clipPathUnits="userSpaceOnUse"
       id="clipPath3941">
      <path
         d="M 0,0 H 612 V 612 H 0 Z"
         clip-rule="evenodd"
         id="path3941" />
    </clipPath>
    <clipPath
       clipPathUnits="userSpaceOnUse"
       id="clipPath3943">
      <path
         d="M 0,0 H 612 V 612 H 0 Z"
         clip-rule="evenodd"
         id="path3943" />
    </clipPath>
    <clipPath
       clipPathUnits="userSpaceOnUse"
       id="clipPath3945">
      <path
         d="M 0,0 H 612 V 612 H 0 Z"
         clip-rule="evenodd"
         id="path3945" />
    </clipPath>
    <clipPath
       clipPathUnits="userSpaceOnUse"
       id="clipPath3947">
      <path
         d="M 0,0 H 612 V 612 H 0 Z"
         clip-rule="evenodd"
         id="path3947" />
    </clipPath>
    <clipPath
       clipPathUnits="userSpaceOnUse"
       id="clipPath3949">
      <path
         d="M 0,0 H 612 V 612 H 0 Z"
         clip-rule="evenodd"
         id="path3949" />
    </clipPath>
    <clipPath
       clipPathUnits="userSpaceOnUse"
       id="clipPath3951">
      <path
         d="M 0,0 H 612 V 612 H 0 Z"
         clip-rule="evenodd"
         id="path3951" />
    </clipPath>
    <clipPath
       clipPathUnits="userSpaceOnUse"
       id="clipPath3953">
      <path
         d="M 0,0 H 612 V 612 H 0 Z"
         clip-rule="evenodd"
         id="path3953" />
    </clipPath>
    <clipPath
       clipPathUnits="userSpaceOnUse"
       id="clipPath3955">
      <path
         d="M 0,0 H 612 V 612 H 0 Z"
         clip-rule="evenodd"
         id="path3955" />
    </clipPath>
    <clipPath
       clipPathUnits="userSpaceOnUse"
       id="clipPath3957">
      <path
         d="M 0,0 H 612 V 612 H 0 Z"
         clip-rule="evenodd"
         id="path3957" />
    </clipPath>
    <clipPath
       clipPathUnits="userSpaceOnUse"
       id="clipPath3959">
      <path
         d="M 0,0 H 612 V 612 H 0 Z"
         clip-rule="evenodd"
         id="path3959" />
    </clipPath>
    <clipPath
       clipPathUnits="userSpaceOnUse"
       id="clipPath3961">
      <path
         d="M 0,0 H 612 V 612 H 0 Z"
         clip-rule="evenodd"
         id="path3961" />
    </clipPath>
    <clipPath
       clipPathUnits="userSpaceOnUse"
       id="clipPath3963">
      <path
         d="M 0,0 H 612 V 612 H 0 Z"
         clip-rule="evenodd"
         id="path3963" />
    </clipPath>
  </defs>
  <g
     inkscape:label="Capa 1"
     inkscape:groupmode="layer"
     id="layer1">
    <path
       id="path3926"
       d="m 221.16182,259.89577 1.90294,6.43965 1.60378,4.68112 h 7.22493 l -9.63928,-26.09993 h -8.29653 l -10.43359,26.09993 h 7.29397 l 2.2381,-6.08993 h 4.87329 v -4.90502 l -3.39813,-0.12582 2.38318,-6.99779 c 0.0378,-0.10089 0.1701,-0.5673 0.39708,-1.3995 0.22687,-0.82585 0.43486,-1.57621 0.61787,-2.24424 0.12596,0.46005 0.28364,1.05258 0.47908,1.79658 0.24592,0.97098 0.40344,1.55717 0.46641,1.75245 l 2.08125,6.39761 0.003,0.007 0.22377,0.68811 h -0.0205 z M 85.775941,244.91661 h 18.194269 l -0.0378,5.06879 H 92.756196 92.395537 85.687898 Z m 6.543935,10.25084 h 0.436319 10.936725 l -0.0757,5.06874 H 92.20634 l -0.07571,5.59818 h 11.65668 l -0.0944,5.18217 H 85.322087 l 0.275528,-15.84909 z m 23.140464,-10.25084 h 6.8844 l -0.34047,20.3882 h 11.91525 l -0.11359,5.71173 h -18.79929 z m 29.44487,0 h 18.19422 l -0.0376,5.06879 h -8.42902 -3.10803 -6.7077 z m 6.54394,10.25084 h 3.18369 8.1893 l -0.0757,5.06874 h -11.41076 l -0.0757,5.59818 h 11.65664 l -0.0945,5.18217 H 144.4513 l 0.27569,-15.84909 z m 20.71976,-10.25084 h 7.18694 l 4.12299,14.03986 c 0.0695,0.24587 0.21443,0.81941 0.42242,1.72743 0.20799,0.90136 0.48544,2.14334 0.8322,3.71939 0.25841,-1.02114 0.51053,-1.98568 0.76274,-2.8872 0.25222,-0.9079 0.4856,-1.69598 0.69353,-2.37686 l 4.43821,-14.22262 h 7.07351 l -9.34933,26.09993 h -7.36979 z"
       style="fill:#e9eaf5;fill-opacity:1;fill-rule:evenodd;stroke:none;stroke-width:0.520356" />
    <path
       id="path3927"
       d="m 100.61512,279.38833 h 10.54687 l -0.0441,3.14877 h -6.64952 l -0.0441,2.97228 h 6.55413 l -0.0403,3.06067 h -6.57995 l -0.088,6.01104 h -3.9193 z m 31.18422,3.03856 c -1.20379,0 -2.14694,0.40739 -2.82938,1.22189 -0.67881,0.81484 -1.02016,1.94885 -1.02016,3.40558 0,1.41291 0.3375,2.51384 1.00923,3.303 0.67511,0.78882 1.61456,1.18517 2.81829,1.18517 1.21103,0 2.15417,-0.4 2.83662,-1.19995 0.6788,-0.80005 1.02015,-1.91574 1.02015,-3.34328 0,-1.41276 -0.34135,-2.52846 -1.02015,-3.34667 -0.68245,-0.81835 -1.60363,-1.22574 -2.76345,-1.22574 z m 0.0512,-3.30286 c 1.25525,0 2.35253,0.17994 3.29567,0.53586 0.94314,0.35963 1.77254,0.91381 2.48808,1.66603 0.67157,0.70462 1.1927,1.55249 1.55227,2.54693 0.36331,0.99799 0.54325,2.06238 0.54325,3.20346 0,1.03135 -0.19466,2.04422 -0.58732,3.0422 -0.38897,0.99477 -0.9138,1.82776 -1.57429,2.50303 -0.73016,0.7375 -1.59275,1.29168 -2.58351,1.66586 -0.99445,0.3707 -2.12107,0.55803 -3.37986,0.55803 -1.1414,0 -2.15412,-0.16151 -3.04226,-0.4881 -0.88793,-0.32657 -1.68064,-0.82575 -2.37433,-1.50085 -0.75961,-0.72304 -1.33934,-1.58183 -1.7358,-2.57259 -0.40005,-0.99092 -0.59815,-2.06976 -0.59815,-3.22953 0,-2.36315 0.73401,-4.27524 2.20178,-5.73937 1.47177,-1.46069 3.40198,-2.19096 5.79447,-2.19096 z m 25.26496,3.01656 -0.0661,4.11752 h 1.60364 c 0.80743,0 1.42384,-0.17625 1.84231,-0.52847 0.41832,-0.34859 0.62745,-0.86603 0.62745,-1.54483 0,-0.66788 -0.19441,-1.17455 -0.57983,-1.52308 -0.38881,-0.3487 -0.95033,-0.52114 -1.68788,-0.52114 z m -3.87518,-2.75226 h 5.76512 c 1.97433,0 3.44964,0.34859 4.43301,1.04965 0.97988,0.69723 1.47166,1.75038 1.47166,3.15211 0,1.14859 -0.28629,2.06238 -0.85525,2.74503 -0.56859,0.67896 -1.42734,1.12309 -2.56488,1.33205 0.4807,0.16522 0.89901,0.42217 1.25847,0.77441 0.35608,0.34857 0.70847,0.84785 1.05331,1.49362 l 2.47345,4.64589 h -4.32295 l -2.17259,-4.28981 c -0.24207,-0.47348 -0.50266,-0.80744 -0.77793,-0.9946 -0.27522,-0.19087 -0.67157,-0.28631 -1.18901,-0.28631 h -0.76331 l -0.0881,5.57072 h -3.94123 z m 38.64116,0.44401 -0.60933,3.05698 c -0.57984,-0.17629 -1.1119,-0.30845 -1.5964,-0.39635 -0.48425,-0.0881 -0.91734,-0.13216 -1.30646,-0.13216 -1.74673,0 -3.14487,0.43672 -4.19437,1.31 -1.04961,0.87731 -1.57429,2.03312 -1.57429,3.47159 0,1.24771 0.37424,2.27536 1.11913,3.08279 0.74499,0.80359 1.69168,1.20727 2.84764,1.20727 0.24972,0 0.52499,-0.0147 0.82217,-0.0478 0.29722,-0.0329 0.63119,-0.0844 1.00553,-0.15766 l 0.0844,-4.92496 3.89715,-0.022 -0.13924,7.76881 c -1.03858,0.26064 -2.00753,0.4515 -2.90655,0.57983 -0.89902,0.12862 -1.72841,0.19472 -2.48818,0.19472 -2.67895,0 -4.76687,-0.69 -6.25691,-2.06977 -1.48993,-1.37634 -2.23482,-3.31024 -2.23482,-5.79463 0,-2.35955 0.78547,-4.24954 2.35237,-5.67338 1.57043,-1.42764 3.66231,-2.13965 6.27886,-2.13965 0.8588,0 1.69553,0.0587 2.51004,0.17261 0.81113,0.11372 1.61118,0.28614 2.38927,0.51373 z m 14.18572,-0.44401 h 10.59084 l -0.0221,2.95051 h -6.71565 l -0.044,3.0164 h 6.62022 l -0.0441,2.95052 h -6.64217 l -0.0441,3.25872 h 6.78554 l -0.0551,3.01661 h -10.69362 z"
       style="fill:#e9eaf5;fill-opacity:1;fill-rule:nonzero;stroke:none;stroke-width:0.520356" />
    <path
       id="path3928"
       d="m 306,433.5908 c -23.1307,-38.6538 -58.8883,-50.9026 -57.3911,-79.8477 1.497,-28.9451 13.4864,-38.5818 31.701,-46.3992 v 31.0382 c 0.7563,11.7817 8.2383,20.365 13.7809,27.2699 5.8153,7.2431 10.8244,12.1037 11.9092,12.1096 1.0848,-0.006 6.0942,-4.8665 11.9092,-12.1096 5.5426,-6.9049 13.0246,-15.4882 13.7809,-27.2699 v -31.0382 c 18.2146,7.8174 30.204,17.4541 31.7013,46.3992 1.4972,28.9451 -34.2604,41.1939 -57.3914,79.8477"
       style="fill:#ffbb00;fill-opacity:1;fill-rule:evenodd;stroke:none"
       transform="matrix(0.52035527,0,0,-0.52035527,-0.46243503,318.93356)"
       clip-path="url(#clipPath3929)" />
    <g
       id="g3931"
       clip-path="url(#clipPath3932)"
       transform="matrix(0.39026647,0,0,0.39026647,-1631.7763,0.47611122)">
      <path
         d="m 223.1427,321.5356 82.9877,82.9873 82.9874,-82.9873 -82.9874,-82.9877 z"
         style="fill:#f97300;fill-opacity:1;fill-rule:evenodd;stroke:none"
         transform="matrix(1.3333333,0,0,-1.3333333,4180,816)"
         clip-path="url(#clipPath3930)"
         id="path3931" />
    </g>
    <path
       id="path3933"
       d="m 306,347.7509 c -0.6661,-0.006 -8.0819,-3.4741 -8.0787,-17.0421 v -34.7743 c 0,-4.4434 3.6354,-8.0788 8.0787,-8.0788 4.4436,0 8.0787,3.6354 8.0787,8.0788 v 34.7743 c 0.003,13.568 -7.4126,17.0365 -8.0787,17.0421"
       style="fill:#f97300;fill-opacity:1;fill-rule:evenodd;stroke:none"
       transform="matrix(0.52035527,0,0,-0.52035527,-0.46243503,318.93356)"
       clip-path="url(#clipPath3934)" />
    <path
       id="path3935"
       d="m 306,199.004 90.129,62.7469 c 7.8222,5.9885 7.8222,5.9885 15.6109,5.9885 h 16.3676 V 248.5216 L 306,162.8351 183.8928,248.5216 v 19.2178 h 16.3673 c 7.789,0 7.789,0 15.6112,-5.9885 z"
       style="fill:#174166;fill-opacity:1;fill-rule:evenodd;stroke:none"
       transform="matrix(0.52035527,0,0,-0.52035527,-0.46243503,318.93356)"
       clip-path="url(#clipPath3936)" />
    <g
       id="g3938"
       clip-path="url(#clipPath3939)"
       transform="matrix(0.39026647,0,0,0.39026647,-1631.7763,0.47611122)">
      <path
         d="M 171.7523,286.6354 H 428.1075 V 134.7919 H 171.7523 Z"
         style="fill:#306a9c;fill-opacity:1;fill-rule:evenodd;stroke:none"
         transform="matrix(1.3333333,0,0,-1.3333333,4180,816)"
         clip-path="url(#clipPath3937)"
         id="path3938" />
    </g>
    <path
       id="path3940"
       d="m 517.3818,311.1681 -121.1882,-0.0592 c -7.7207,0 -7.7207,0 -15.3859,-5.3034 l -49.2029,-34.0424 c -12.7596,-8.8282 -12.7596,-10.4014 -12.7596,-18.3597 V 227.3 l 77.3563,54.2835 c 7.75,5.4383 7.75,5.4383 15.5053,5.4383 h 71.2652 z"
       style="fill:#49aced;fill-opacity:1;fill-rule:evenodd;stroke:none"
       transform="matrix(0.52035527,0,0,-0.52035527,-0.46243503,318.93356)"
       clip-path="url(#clipPath3941)" />
    <path
       id="path3942"
       d="m 341.3455,454.4444 -29.3159,26.0986 c -1.7178,1.529 -3.8855,2.2527 -6.0296,2.1991 -2.1441,0.0536 -4.3118,-0.6701 -6.0293,-2.1991 l -29.3159,-26.0986 c -3.5881,-3.1943 -3.907,-8.74 -0.7087,-12.3239 v -2e-4 c 3.1987,-3.5836 8.7512,-3.9019 12.3395,-0.7079 L 306,462.5246 329.7146,441.4124 c 3.5881,-3.194 9.1406,-2.8757 12.3393,0.7079 l 2e-4,2e-4 c 3.1984,3.5839 2.8792,9.1296 -0.7086,12.3239"
       style="fill:#e9eaf5;fill-opacity:1;fill-rule:evenodd;stroke:none"
       transform="matrix(0.52035527,0,0,-0.52035527,-0.46243503,318.93356)"
       clip-path="url(#clipPath3943)" />
    <path
       id="path3944"
       d="m 275.2441,534.1686 c 6.4448,-0.6211 12.02,-3.0651 16.9744,-6.751 0.3407,-0.2537 0.7294,-0.5176 1.0692,-0.796 1.9438,-1.5902 2.5952,-2.4469 4.0318,-3.702 l 2.5554,-3.1748 c 1.0191,-1.374 2.0574,-3.0912 2.8979,-4.8311 0.8359,-1.7303 1.576,-3.6474 2.1223,-5.618 0.5765,-2.0804 0.8753,-5.5783 1.1049,-6.0834 1.1608,6.7878 2.6192,11.1704 6.1792,16.4488 2.9356,4.3532 7.8038,8.3206 12.4288,10.6266 3.5904,1.79 7.6505,3.4647 12.1655,3.8809 -5.0834,1.0414 -9.377,-0.3977 -17.8983,6.4397 -0.3943,0.3164 -0.7103,0.646 -1.0709,0.9298 l -0.9873,0.8762 c -3.2148,3.1858 -5.2954,5.4487 -7.4727,10.0009 -1.7183,3.5926 -2.4993,7.8412 -3.344,12.7097 -0.8997,-4.5805 -0.7291,-7.7916 -3.1221,-12.5317 -0.8955,-1.7736 -1.8436,-3.4639 -2.8667,-4.8674 -1.9533,-2.6804 -3.5455,-4.32 -6.0534,-6.5483 l -1.7098,-1.2997 c -8.1278,-6.2164 -11.9384,-4.6142 -17.0042,-5.7092"
       style="fill:#e9eaf5;fill-opacity:1;fill-rule:evenodd;stroke:none"
       transform="matrix(0.52035527,0,0,-0.52035527,-0.46243503,318.93356)"
       clip-path="url(#clipPath3945)" />
    <path
       id="path3946"
       d="m 411.6903,364.8022 c 4.5871,-0.4419 8.555,-1.7601 12.081,-4.3832 0.2427,-0.1806 0.519,-0.3685 0.7611,-0.5664 1.3833,-1.1319 1.8468,-1.7416 2.8695,-2.6351 l 1.8187,-2.2595 c 0.7251,-0.9777 1.4644,-2.2 2.0625,-3.4381 0.5947,-1.2317 1.1217,-2.596 1.5103,-3.9986 0.4105,-1.4805 0.6231,-3.9702 0.7866,-4.3296 0.826,4.8311 1.8641,7.95 4.3977,11.7068 2.0894,3.0983 5.5542,5.9218 8.8458,7.5631 2.5554,1.2742 5.4326,2.0333 8.6457,2.3295 -0.3481,0.176 -3.051,0.4638 -4.5224,0.8907 -2.8324,0.8217 -5.9397,2.3088 -8.2032,4.1252 -0.2806,0.2251 -0.506,0.4598 -0.7622,0.6616 l -0.7028,0.6237 c -2.2881,2.2674 -3.7689,3.878 -5.3186,7.1177 -1.2229,2.5569 -1.7787,5.5809 -2.38,9.0457 -0.6403,-3.2599 -0.5187,-5.5451 -2.222,-8.9189 -0.6373,-1.2623 -1.3119,-2.4653 -2.0401,-3.464 -1.3904,-1.9077 -2.5234,-3.0747 -4.3084,-4.6607 l -1.2169,-0.925 c -2.5413,-1.9437 -6.4191,-3.5183 -9.654,-4.0986 -0.7007,-0.1255 -1.8745,-0.1678 -2.4483,-0.3863"
       style="fill:#e9eaf5;fill-opacity:1;fill-rule:evenodd;stroke:none"
       transform="matrix(0.52035527,0,0,-0.52035527,-0.46243503,318.93356)"
       clip-path="url(#clipPath3947)" />
    <path
       id="path3948"
       d="m 200.3097,364.8022 c -4.5871,-0.4419 -8.555,-1.7601 -12.081,-4.3832 -0.2427,-0.1806 -0.519,-0.3685 -0.7608,-0.5664 -1.3836,-1.1319 -1.8471,-1.7416 -2.8695,-2.6351 l -1.819,-2.2595 c -0.7251,-0.9777 -1.4641,-2.2 -2.0622,-3.4381 -0.595,-1.2317 -1.1217,-2.596 -1.5103,-3.9986 -0.4108,-1.4805 -0.6231,-3.9702 -0.7866,-4.3296 -0.8263,4.8311 -1.8641,7.95 -4.398,11.7068 -2.0894,3.0983 -5.5542,5.9218 -8.8458,7.5631 -2.5551,1.2742 -5.4323,2.0333 -8.6457,2.3295 0.3481,0.176 3.0512,0.4638 4.5224,0.8907 2.8324,0.8217 5.9397,2.3088 8.2035,4.1252 0.2806,0.2251 0.5057,0.4598 0.7622,0.6616 l 0.7027,0.6237 c 2.2879,2.2674 3.769,3.878 5.3184,7.1177 1.2231,2.5569 1.7787,5.5809 2.38,9.0457 0.6403,-3.2599 0.519,-5.5451 2.222,-8.9189 0.6376,-1.2623 1.3122,-2.4653 2.0401,-3.464 1.3904,-1.9077 2.5237,-3.0747 4.3087,-4.6607 l 1.2169,-0.925 c 2.541,-1.9437 6.4191,-3.5183 9.654,-4.0986 0.7007,-0.1255 1.8745,-0.1678 2.448,-0.3863"
       style="fill:#e9eaf5;fill-opacity:1;fill-rule:evenodd;stroke:none"
       transform="matrix(0.52035527,0,0,-0.52035527,-0.46243503,318.93356)"
       clip-path="url(#clipPath3949)" />
    <path
       id="path3950"
       d="m 380.7343,427.8813 c 6.4868,-0.6251 12.0983,-2.4889 17.085,-6.1988 0.343,-0.2554 0.7339,-0.5211 1.076,-0.8011 1.9565,-1.6007 2.6121,-2.463 4.0581,-3.7262 l 2.5721,-3.1957 c 1.0256,-1.3828 2.071,-3.1111 2.9166,-4.8623 0.8413,-1.7416 1.5863,-3.6712 2.1362,-5.6546 0.5805,-2.0939 0.881,-5.6148 1.1123,-6.1231 1.1682,6.8321 2.6362,11.2431 6.2195,16.5558 2.9548,4.3818 7.8545,8.3749 12.5096,10.6959 3.6139,1.8017 7.6827,2.8755 12.2269,3.2945 -0.4923,0.2489 -4.3149,0.6559 -6.3955,1.2594 -4.0056,1.1622 -8.4002,3.2655 -11.6013,5.8343 -0.3969,0.3183 -0.7152,0.65 -1.0781,0.9354 l -0.9938,0.8819 c -3.2354,3.2068 -5.33,5.4844 -7.5214,10.0661 -1.7294,3.6161 -2.5155,7.8925 -3.3656,12.7924 -0.9057,-4.6102 -0.7339,-7.842 -3.1428,-12.6133 -0.9011,-1.785 -1.8552,-3.4863 -2.8851,-4.8988 -1.9661,-2.6977 -3.5685,-4.3481 -6.093,-6.5911 l -1.721,-1.3079 c -3.5937,-2.7488 -9.0779,-4.9757 -13.6527,-5.7963 -0.991,-0.1778 -2.651,-0.2373 -3.462,-0.5465"
       style="fill:#e9eaf5;fill-opacity:1;fill-rule:evenodd;stroke:none"
       transform="matrix(0.52035527,0,0,-0.52035527,-0.46243503,318.93356)"
       clip-path="url(#clipPath3951)" />
    <path
       id="path3952"
       d="m 231.266,427.8813 c -6.4871,-0.6251 -12.0986,-2.4889 -17.085,-6.1988 -0.3433,-0.2554 -0.7342,-0.5211 -1.0763,-0.8011 -1.9565,-1.6007 -2.6118,-2.463 -4.0581,-3.7262 l -2.5721,-3.1957 c -1.0253,-1.3828 -2.0708,-3.1111 -2.9166,-4.8623 -0.8413,-1.7416 -1.5863,-3.6712 -2.1359,-5.6546 -0.5806,-2.0939 -0.8813,-5.6148 -1.1123,-6.1231 -1.1685,6.8321 -2.6363,11.2431 -6.2195,16.5558 -2.9549,4.3818 -7.8548,8.3749 -12.5099,10.6959 -3.6136,1.8017 -7.6827,2.8755 -12.2269,3.2945 0.4923,0.2489 4.3151,0.6559 6.3958,1.2594 4.0053,1.1622 8.3999,3.2655 11.6013,5.8343 0.3969,0.3183 0.7152,0.65 1.078,0.9354 l 0.9936,0.8819 c 3.2357,3.2068 5.33,5.4844 7.5214,10.0661 1.7297,3.6161 2.5155,7.8925 3.3659,12.7924 0.9057,-4.6102 0.7339,-7.842 3.1425,-12.6133 0.9014,-1.785 1.8555,-3.4863 2.8851,-4.8988 1.9664,-2.6977 3.5688,-4.3481 6.093,-6.5911 l 1.721,-1.3079 c 3.5937,-2.7488 9.0782,-4.9757 13.6527,-5.7963 0.9913,-0.1778 2.651,-0.2373 3.4623,-0.5465"
       style="fill:#e9eaf5;fill-opacity:1;fill-rule:evenodd;stroke:none"
       transform="matrix(0.52035527,0,0,-0.52035527,-0.46243503,318.93356)"
       clip-path="url(#clipPath3953)" />
    <path
       id="path3954"
       d="m 156.5308,467.5547 c 4.4853,0 8.1213,-3.636 8.1213,-8.1213 0,-4.485 -3.636,-8.121 -8.1213,-8.121 -4.4852,0 -8.1212,3.636 -8.1212,8.121 0,4.4853 3.636,8.1213 8.1212,8.1213"
       style="fill:#e9eaf5;fill-opacity:1;fill-rule:evenodd;stroke:none"
       transform="matrix(0.52035527,0,0,-0.52035527,-0.46243503,318.93356)"
       clip-path="url(#clipPath3955)" />
    <path
       id="path3956"
       d="m 455.4692,467.5547 c -4.485,0 -8.121,-3.636 -8.121,-8.1213 0,-4.485 3.636,-8.121 8.121,-8.121 4.4852,0 8.1212,3.636 8.1212,8.121 0,4.4853 -3.636,8.1213 -8.1212,8.1213"
       style="fill:#e6e6e6;fill-opacity:1;fill-rule:evenodd;stroke:none"
       transform="matrix(0.52035527,0,0,-0.52035527,-0.46243503,318.93356)"
       clip-path="url(#clipPath3957)" />
    <path
       id="path3958"
       d="m 200.3097,511.3335 c 4.4852,0 8.1212,-3.636 8.1212,-8.1212 0,-4.485 -3.636,-8.121 -8.1212,-8.121 -4.485,0 -8.1213,3.636 -8.1213,8.121 0,4.4852 3.6363,8.1212 8.1213,8.1212"
       style="fill:#e9eaf5;fill-opacity:1;fill-rule:evenodd;stroke:none"
       transform="matrix(0.52035527,0,0,-0.52035527,-0.46243503,318.93356)"
       clip-path="url(#clipPath3959)" />
    <path
       id="path3960"
       d="m 411.6903,511.3335 c -4.4849,0 -8.1209,-3.636 -8.1209,-8.1212 0,-4.485 3.636,-8.121 8.1209,-8.121 4.4853,0 8.1213,3.636 8.1213,8.121 0,4.4852 -3.636,8.1212 -8.1213,8.1212"
       style="fill:#e9eaf5;fill-opacity:1;fill-rule:evenodd;stroke:none"
       transform="matrix(0.52035527,0,0,-0.52035527,-0.46243503,318.93356)"
       clip-path="url(#clipPath3961)" />
    <path
       id="path3962"
       d="m 94.6188,311.1681 121.1882,-0.0592 c 7.7207,0 7.7207,0 15.3859,-5.3034 l 49.2029,-34.0424 c 12.7599,-8.8282 12.7599,-10.4014 12.7599,-18.3597 V 227.3 l -77.3567,54.2835 c -7.7496,5.4383 -7.7496,5.4383 -15.5052,5.4383 h -71.2653 z"
       style="fill:#49aced;fill-opacity:1;fill-rule:evenodd;stroke:none"
       transform="matrix(0.52035527,0,0,-0.52035527,-0.46243503,318.93356)"
       clip-path="url(#clipPath3963)" />
  </g>
</svg>
