<?xml version="1.0" encoding="UTF-8" standalone="no"?>
<!-- Created with Inkscape (http://www.inkscape.org/) -->

<svg
   width="1200"
   height="1200"
   viewBox="0 0 317.49999 317.5"
   version="1.1"
   id="svg1"
   inkscape:version="1.4.2 (f4327f4, 2025-05-13)"
   sodipodi:docname="LogoEleva.svg"
   xmlns:inkscape="http://www.inkscape.org/namespaces/inkscape"
   xmlns:sodipodi="http://sodipodi.sourceforge.net/DTD/sodipodi-0.dtd"
   xmlns="http://www.w3.org/2000/svg"
   xmlns:svg="http://www.w3.org/2000/svg">
  <sodipodi:namedview
     id="namedview1"
     pagecolor="#ffffff"
     bordercolor="#000000"
     borderopacity="0.25"
     inkscape:showpageshadow="2"
     inkscape:pageopacity="0.0"
     inkscape:pagecheckerboard="0"
     inkscape:deskcolor="#d1d1d1"
     inkscape:document-units="mm"
     inkscape:zoom="0.51339147"
     inkscape:cx="230.81801"
     inkscape:cy="589.21898"
     inkscape:window-width="1920"
     inkscape:window-height="1017"
     inkscape:window-x="-8"
     inkscape:window-y="-8"
     inkscape:window-maximized="1"
     inkscape:current-layer="layer1" />
  <defs
     id="defs1">
    <clipPath
       clipPathUnits="userSpaceOnUse"
       id="clipPath3929">
      <path
         d="M 0,0 H 612 V 612 H 0 Z"
         clip-rule="evenodd"
         id="path3929" />
    </clipPath>
    <clipPath
       clipPathUnits="userSpaceOnUse"
       id="clipPath3932">
      <path
         d="M 0,0 H 612 V 612 H 0 Z"
         transform="matrix(1.3333333,0,0,-1.3333333,4180,816)"
         clip-rule="evenodd"
         id="path3932" />
    </clipPath>
    <clipPath
       clipPathUnits="userSpaceOnUse"
       id="clipPath3930">
      <path
         d="m 306,433.5908 c -23.1307,-38.6538 -58.8883,-50.9026 -57.3911,-79.8477 1.497,-28.9451 13.4864,-38.5818 31.701,-46.3992 v 31.0382 c 0.7563,11.7817 8.2383,20.365 13.7809,27.2699 5.8153,7.2431 10.8244,12.1037 11.9092,12.1096 1.0848,-0.006 6.0942,-4.8665 11.9092,-12.1096 5.5426,-6.9049 13.0246,-15.4882 13.7809,-27.2699 v -31.0382 c 18.2146,7.8174 30.204,17.4541 31.7013,46.3992 1.4972,28.9451 -34.2604,41.1939 -57.3914,79.8477"
         clip-rule="evenodd"
         id="path3930" />
    </clipPath>
    <clipPath
       clipPathUnits="userSpaceOnUse"
       id="clipPath3934">
      <path
         d="M 0,0 H 612 V 612 H 0 Z"
         clip-rule="evenodd"
         id="path3934" />
    </clipPath>
    <clipPath
       clipPathUnits="userSpaceOnUse"
       id="clipPath3936">
      <path
         d="M 0,0 H 612 V 612 H 0 Z"
         clip-rule="evenodd"
         id="path3936" />
    </clipPath>
    <clipPath
       clipPathUnits="userSpaceOnUse"
       id="clipPath3939">
      <path
         d="M 0,0 H 612 V 612 H 0 Z"
         transform="matrix(1.3333333,0,0,-1.3333333,4180,816)"
         clip-rule="evenodd"
         id="path3939" />
    </clipPath>
    <clipPath
       clipPathUnits="userSpaceOnUse"
       id="clipPath3937">
      <path
         d="m 306,199.004 90.129,62.7469 c 7.8222,5.9885 7.8222,5.9885 15.6109,5.9885 h 16.3676 V 248.5216 L 306,162.8351 183.8928,248.5216 v 19.2178 h 16.3673 c 7.789,0 7.789,0 15.6112,-5.9885 z"
         clip-rule="evenodd"
         id="path3937" />
    </clipPath>
    <clipPath
       clipPathUnits="userSpaceOnUse"
       id="clipPath3941">
      <path
         d="M 0,0 H 612 V 612 H 0 Z"
         clip-rule="evenodd"
         id="path3941" />
    </clipPath>
    <clipPath
       clipPathUnits="userSpaceOnUse"
       id="clipPath3943">
      <path
         d="M 0,0 H 612 V 612 H 0 Z"
         clip-rule="evenodd"
         id="path3943" />
    </clipPath>
    <clipPath
       clipPathUnits="userSpaceOnUse"
       id="clipPath3945">
      <path
         d="M 0,0 H 612 V 612 H 0 Z"
         clip-rule="evenodd"
         id="path3945" />
    </clipPath>
    <clipPath
       clipPathUnits="userSpaceOnUse"
       id="clipPath3947">
      <path
         d="M 0,0 H 612 V 612 H 0 Z"
         clip-rule="evenodd"
         id="path3947" />
    </clipPath>
    <clipPath
       clipPathUnits="userSpaceOnUse"
       id="clipPath3949">
      <path
         d="M 0,0 H 612 V 612 H 0 Z"
         clip-rule="evenodd"
         id="path3949" />
    </clipPath>
    <clipPath
       clipPathUnits="userSpaceOnUse"
       id="clipPath3951">
      <path
         d="M 0,0 H 612 V 612 H 0 Z"
         clip-rule="evenodd"
         id="path3951" />
    </clipPath>
    <clipPath
       clipPathUnits="userSpaceOnUse"
       id="clipPath3953">
      <path
         d="M 0,0 H 612 V 612 H 0 Z"
         clip-rule="evenodd"
         id="path3953" />
    </clipPath>
    <clipPath
       clipPathUnits="userSpaceOnUse"
       id="clipPath3955">
      <path
         d="M 0,0 H 612 V 612 H 0 Z"
         clip-rule="evenodd"
         id="path3955" />
    </clipPath>
    <clipPath
       clipPathUnits="userSpaceOnUse"
       id="clipPath3957">
      <path
         d="M 0,0 H 612 V 612 H 0 Z"
         clip-rule="evenodd"
         id="path3957" />
    </clipPath>
    <clipPath
       clipPathUnits="userSpaceOnUse"
       id="clipPath3959">
      <path
         d="M 0,0 H 612 V 612 H 0 Z"
         clip-rule="evenodd"
         id="path3959" />
    </clipPath>
    <clipPath
       clipPathUnits="userSpaceOnUse"
       id="clipPath3961">
      <path
         d="M 0,0 H 612 V 612 H 0 Z"
         clip-rule="evenodd"
         id="path3961" />
    </clipPath>
    <clipPath
       clipPathUnits="userSpaceOnUse"
       id="clipPath3963">
      <path
         d="M 0,0 H 612 V 612 H 0 Z"
         clip-rule="evenodd"
         id="path3963" />
    </clipPath>
  </defs>
  <g
     inkscape:label="Capa 1"
     inkscape:groupmode="layer"
     id="layer1">
    <g
       id="g1"
       transform="matrix(1.3185716,0,0,1.3185716,-51.605296,3.8475559)">
      <path
         id="path3928"
         d="m 306,433.5908 c -23.1307,-38.6538 -58.8883,-50.9026 -57.3911,-79.8477 1.497,-28.9451 13.4864,-38.5818 31.701,-46.3992 v 31.0382 c 0.7563,11.7817 8.2383,20.365 13.7809,27.2699 5.8153,7.2431 10.8244,12.1037 11.9092,12.1096 1.0848,-0.006 6.0942,-4.8665 11.9092,-12.1096 5.5426,-6.9049 13.0246,-15.4882 13.7809,-27.2699 v -31.0382 c 18.2146,7.8174 30.204,17.4541 31.7013,46.3992 1.4972,28.9451 -34.2604,41.1939 -57.3914,79.8477"
         style="fill:#ffbb00;fill-opacity:1;fill-rule:evenodd;stroke:none"
         transform="matrix(0.52035527,0,0,-0.52035527,-0.46243503,318.93356)"
         clip-path="url(#clipPath3929)" />
      <g
         id="g3931"
         clip-path="url(#clipPath3932)"
         transform="matrix(0.39026647,0,0,0.39026647,-1631.7763,0.47611122)">
        <path
           d="m 223.1427,321.5356 82.9877,82.9873 82.9874,-82.9873 -82.9874,-82.9877 z"
           style="fill:#f97300;fill-opacity:1;fill-rule:evenodd;stroke:none"
           transform="matrix(1.3333333,0,0,-1.3333333,4180,816)"
           clip-path="url(#clipPath3930)"
           id="path3931" />
      </g>
      <path
         id="path3933"
         d="m 306,347.7509 c -0.6661,-0.006 -8.0819,-3.4741 -8.0787,-17.0421 v -34.7743 c 0,-4.4434 3.6354,-8.0788 8.0787,-8.0788 4.4436,0 8.0787,3.6354 8.0787,8.0788 v 34.7743 c 0.003,13.568 -7.4126,17.0365 -8.0787,17.0421"
         style="fill:#f97300;fill-opacity:1;fill-rule:evenodd;stroke:none"
         transform="matrix(0.52035527,0,0,-0.52035527,-0.46243503,318.93356)"
         clip-path="url(#clipPath3934)" />
      <path
         id="path3935"
         d="m 306,199.004 90.129,62.7469 c 7.8222,5.9885 7.8222,5.9885 15.6109,5.9885 h 16.3676 V 248.5216 L 306,162.8351 183.8928,248.5216 v 19.2178 h 16.3673 c 7.789,0 7.789,0 15.6112,-5.9885 z"
         style="fill:#174166;fill-opacity:1;fill-rule:evenodd;stroke:none"
         transform="matrix(0.52035527,0,0,-0.52035527,-0.46243503,318.93356)"
         clip-path="url(#clipPath3936)" />
      <g
         id="g3938"
         clip-path="url(#clipPath3939)"
         transform="matrix(0.39026647,0,0,0.39026647,-1631.7763,0.47611122)">
        <path
           d="M 171.7523,286.6354 H 428.1075 V 134.7919 H 171.7523 Z"
           style="fill:#306a9c;fill-opacity:1;fill-rule:evenodd;stroke:none"
           transform="matrix(1.3333333,0,0,-1.3333333,4180,816)"
           clip-path="url(#clipPath3937)"
           id="path3938" />
      </g>
      <path
         id="path3940"
         d="m 517.3818,311.1681 -121.1882,-0.0592 c -7.7207,0 -7.7207,0 -15.3859,-5.3034 l -49.2029,-34.0424 c -12.7596,-8.8282 -12.7596,-10.4014 -12.7596,-18.3597 V 227.3 l 77.3563,54.2835 c 7.75,5.4383 7.75,5.4383 15.5053,5.4383 h 71.2652 z"
         style="fill:#49aced;fill-opacity:1;fill-rule:evenodd;stroke:none"
         transform="matrix(0.52035527,0,0,-0.52035527,-0.46243503,318.93356)"
         clip-path="url(#clipPath3941)" />
      <path
         id="path3942"
         d="m 341.3455,454.4444 -29.3159,26.0986 c -1.7178,1.529 -3.8855,2.2527 -6.0296,2.1991 -2.1441,0.0536 -4.3118,-0.6701 -6.0293,-2.1991 l -29.3159,-26.0986 c -3.5881,-3.1943 -3.907,-8.74 -0.7087,-12.3239 v -2e-4 c 3.1987,-3.5836 8.7512,-3.9019 12.3395,-0.7079 L 306,462.5246 329.7146,441.4124 c 3.5881,-3.194 9.1406,-2.8757 12.3393,0.7079 l 2e-4,2e-4 c 3.1984,3.5839 2.8792,9.1296 -0.7086,12.3239"
         style="fill:#e9eaf5;fill-opacity:1;fill-rule:evenodd;stroke:none"
         transform="matrix(0.52035527,0,0,-0.52035527,-0.46243503,318.93356)"
         clip-path="url(#clipPath3943)" />
      <path
         id="path3944"
         d="m 275.2441,534.1686 c 6.4448,-0.6211 12.02,-3.0651 16.9744,-6.751 0.3407,-0.2537 0.7294,-0.5176 1.0692,-0.796 1.9438,-1.5902 2.5952,-2.4469 4.0318,-3.702 l 2.5554,-3.1748 c 1.0191,-1.374 2.0574,-3.0912 2.8979,-4.8311 0.8359,-1.7303 1.576,-3.6474 2.1223,-5.618 0.5765,-2.0804 0.8753,-5.5783 1.1049,-6.0834 1.1608,6.7878 2.6192,11.1704 6.1792,16.4488 2.9356,4.3532 7.8038,8.3206 12.4288,10.6266 3.5904,1.79 7.6505,3.4647 12.1655,3.8809 -5.0834,1.0414 -9.377,-0.3977 -17.8983,6.4397 -0.3943,0.3164 -0.7103,0.646 -1.0709,0.9298 l -0.9873,0.8762 c -3.2148,3.1858 -5.2954,5.4487 -7.4727,10.0009 -1.7183,3.5926 -2.4993,7.8412 -3.344,12.7097 -0.8997,-4.5805 -0.7291,-7.7916 -3.1221,-12.5317 -0.8955,-1.7736 -1.8436,-3.4639 -2.8667,-4.8674 -1.9533,-2.6804 -3.5455,-4.32 -6.0534,-6.5483 l -1.7098,-1.2997 c -8.1278,-6.2164 -11.9384,-4.6142 -17.0042,-5.7092"
         style="fill:#e9eaf5;fill-opacity:1;fill-rule:evenodd;stroke:none"
         transform="matrix(0.52035527,0,0,-0.52035527,-0.46243503,318.93356)"
         clip-path="url(#clipPath3945)" />
      <path
         id="path3946"
         d="m 411.6903,364.8022 c 4.5871,-0.4419 8.555,-1.7601 12.081,-4.3832 0.2427,-0.1806 0.519,-0.3685 0.7611,-0.5664 1.3833,-1.1319 1.8468,-1.7416 2.8695,-2.6351 l 1.8187,-2.2595 c 0.7251,-0.9777 1.4644,-2.2 2.0625,-3.4381 0.5947,-1.2317 1.1217,-2.596 1.5103,-3.9986 0.4105,-1.4805 0.6231,-3.9702 0.7866,-4.3296 0.826,4.8311 1.8641,7.95 4.3977,11.7068 2.0894,3.0983 5.5542,5.9218 8.8458,7.5631 2.5554,1.2742 5.4326,2.0333 8.6457,2.3295 -0.3481,0.176 -3.051,0.4638 -4.5224,0.8907 -2.8324,0.8217 -5.9397,2.3088 -8.2032,4.1252 -0.2806,0.2251 -0.506,0.4598 -0.7622,0.6616 l -0.7028,0.6237 c -2.2881,2.2674 -3.7689,3.878 -5.3186,7.1177 -1.2229,2.5569 -1.7787,5.5809 -2.38,9.0457 -0.6403,-3.2599 -0.5187,-5.5451 -2.222,-8.9189 -0.6373,-1.2623 -1.3119,-2.4653 -2.0401,-3.464 -1.3904,-1.9077 -2.5234,-3.0747 -4.3084,-4.6607 l -1.2169,-0.925 c -2.5413,-1.9437 -6.4191,-3.5183 -9.654,-4.0986 -0.7007,-0.1255 -1.8745,-0.1678 -2.4483,-0.3863"
         style="fill:#e9eaf5;fill-opacity:1;fill-rule:evenodd;stroke:none"
         transform="matrix(0.52035527,0,0,-0.52035527,-0.46243503,318.93356)"
         clip-path="url(#clipPath3947)" />
      <path
         id="path3948"
         d="m 200.3097,364.8022 c -4.5871,-0.4419 -8.555,-1.7601 -12.081,-4.3832 -0.2427,-0.1806 -0.519,-0.3685 -0.7608,-0.5664 -1.3836,-1.1319 -1.8471,-1.7416 -2.8695,-2.6351 l -1.819,-2.2595 c -0.7251,-0.9777 -1.4641,-2.2 -2.0622,-3.4381 -0.595,-1.2317 -1.1217,-2.596 -1.5103,-3.9986 -0.4108,-1.4805 -0.6231,-3.9702 -0.7866,-4.3296 -0.8263,4.8311 -1.8641,7.95 -4.398,11.7068 -2.0894,3.0983 -5.5542,5.9218 -8.8458,7.5631 -2.5551,1.2742 -5.4323,2.0333 -8.6457,2.3295 0.3481,0.176 3.0512,0.4638 4.5224,0.8907 2.8324,0.8217 5.9397,2.3088 8.2035,4.1252 0.2806,0.2251 0.5057,0.4598 0.7622,0.6616 l 0.7027,0.6237 c 2.2879,2.2674 3.769,3.878 5.3184,7.1177 1.2231,2.5569 1.7787,5.5809 2.38,9.0457 0.6403,-3.2599 0.519,-5.5451 2.222,-8.9189 0.6376,-1.2623 1.3122,-2.4653 2.0401,-3.464 1.3904,-1.9077 2.5237,-3.0747 4.3087,-4.6607 l 1.2169,-0.925 c 2.541,-1.9437 6.4191,-3.5183 9.654,-4.0986 0.7007,-0.1255 1.8745,-0.1678 2.448,-0.3863"
         style="fill:#e9eaf5;fill-opacity:1;fill-rule:evenodd;stroke:none"
         transform="matrix(0.52035527,0,0,-0.52035527,-0.46243503,318.93356)"
         clip-path="url(#clipPath3949)" />
      <path
         id="path3950"
         d="m 380.7343,427.8813 c 6.4868,-0.6251 12.0983,-2.4889 17.085,-6.1988 0.343,-0.2554 0.7339,-0.5211 1.076,-0.8011 1.9565,-1.6007 2.6121,-2.463 4.0581,-3.7262 l 2.5721,-3.1957 c 1.0256,-1.3828 2.071,-3.1111 2.9166,-4.8623 0.8413,-1.7416 1.5863,-3.6712 2.1362,-5.6546 0.5805,-2.0939 0.881,-5.6148 1.1123,-6.1231 1.1682,6.8321 2.6362,11.2431 6.2195,16.5558 2.9548,4.3818 7.8545,8.3749 12.5096,10.6959 3.6139,1.8017 7.6827,2.8755 12.2269,3.2945 -0.4923,0.2489 -4.3149,0.6559 -6.3955,1.2594 -4.0056,1.1622 -8.4002,3.2655 -11.6013,5.8343 -0.3969,0.3183 -0.7152,0.65 -1.0781,0.9354 l -0.9938,0.8819 c -3.2354,3.2068 -5.33,5.4844 -7.5214,10.0661 -1.7294,3.6161 -2.5155,7.8925 -3.3656,12.7924 -0.9057,-4.6102 -0.7339,-7.842 -3.1428,-12.6133 -0.9011,-1.785 -1.8552,-3.4863 -2.8851,-4.8988 -1.9661,-2.6977 -3.5685,-4.3481 -6.093,-6.5911 l -1.721,-1.3079 c -3.5937,-2.7488 -9.0779,-4.9757 -13.6527,-5.7963 -0.991,-0.1778 -2.651,-0.2373 -3.462,-0.5465"
         style="fill:#e9eaf5;fill-opacity:1;fill-rule:evenodd;stroke:none"
         transform="matrix(0.52035527,0,0,-0.52035527,-0.46243503,318.93356)"
         clip-path="url(#clipPath3951)" />
      <path
         id="path3952"
         d="m 231.266,427.8813 c -6.4871,-0.6251 -12.0986,-2.4889 -17.085,-6.1988 -0.3433,-0.2554 -0.7342,-0.5211 -1.0763,-0.8011 -1.9565,-1.6007 -2.6118,-2.463 -4.0581,-3.7262 l -2.5721,-3.1957 c -1.0253,-1.3828 -2.0708,-3.1111 -2.9166,-4.8623 -0.8413,-1.7416 -1.5863,-3.6712 -2.1359,-5.6546 -0.5806,-2.0939 -0.8813,-5.6148 -1.1123,-6.1231 -1.1685,6.8321 -2.6363,11.2431 -6.2195,16.5558 -2.9549,4.3818 -7.8548,8.3749 -12.5099,10.6959 -3.6136,1.8017 -7.6827,2.8755 -12.2269,3.2945 0.4923,0.2489 4.3151,0.6559 6.3958,1.2594 4.0053,1.1622 8.3999,3.2655 11.6013,5.8343 0.3969,0.3183 0.7152,0.65 1.078,0.9354 l 0.9936,0.8819 c 3.2357,3.2068 5.33,5.4844 7.5214,10.0661 1.7297,3.6161 2.5155,7.8925 3.3659,12.7924 0.9057,-4.6102 0.7339,-7.842 3.1425,-12.6133 0.9014,-1.785 1.8555,-3.4863 2.8851,-4.8988 1.9664,-2.6977 3.5688,-4.3481 6.093,-6.5911 l 1.721,-1.3079 c 3.5937,-2.7488 9.0782,-4.9757 13.6527,-5.7963 0.9913,-0.1778 2.651,-0.2373 3.4623,-0.5465"
         style="fill:#e9eaf5;fill-opacity:1;fill-rule:evenodd;stroke:none"
         transform="matrix(0.52035527,0,0,-0.52035527,-0.46243503,318.93356)"
         clip-path="url(#clipPath3953)" />
      <path
         id="path3954"
         d="m 156.5308,467.5547 c 4.4853,0 8.1213,-3.636 8.1213,-8.1213 0,-4.485 -3.636,-8.121 -8.1213,-8.121 -4.4852,0 -8.1212,3.636 -8.1212,8.121 0,4.4853 3.636,8.1213 8.1212,8.1213"
         style="fill:#e9eaf5;fill-opacity:1;fill-rule:evenodd;stroke:none"
         transform="matrix(0.52035527,0,0,-0.52035527,-0.46243503,318.93356)"
         clip-path="url(#clipPath3955)" />
      <path
         id="path3956"
         d="m 455.4692,467.5547 c -4.485,0 -8.121,-3.636 -8.121,-8.1213 0,-4.485 3.636,-8.121 8.121,-8.121 4.4852,0 8.1212,3.636 8.1212,8.121 0,4.4853 -3.636,8.1213 -8.1212,8.1213"
         style="fill:#e6e6e6;fill-opacity:1;fill-rule:evenodd;stroke:none"
         transform="matrix(0.52035527,0,0,-0.52035527,-0.46243503,318.93356)"
         clip-path="url(#clipPath3957)" />
      <path
         id="path3958"
         d="m 200.3097,511.3335 c 4.4852,0 8.1212,-3.636 8.1212,-8.1212 0,-4.485 -3.636,-8.121 -8.1212,-8.121 -4.485,0 -8.1213,3.636 -8.1213,8.121 0,4.4852 3.6363,8.1212 8.1213,8.1212"
         style="fill:#e9eaf5;fill-opacity:1;fill-rule:evenodd;stroke:none"
         transform="matrix(0.52035527,0,0,-0.52035527,-0.46243503,318.93356)"
         clip-path="url(#clipPath3959)" />
      <path
         id="path3960"
         d="m 411.6903,511.3335 c -4.4849,0 -8.1209,-3.636 -8.1209,-8.1212 0,-4.485 3.636,-8.121 8.1209,-8.121 4.4853,0 8.1213,3.636 8.1213,8.121 0,4.4852 -3.636,8.1212 -8.1213,8.1212"
         style="fill:#e9eaf5;fill-opacity:1;fill-rule:evenodd;stroke:none"
         transform="matrix(0.52035527,0,0,-0.52035527,-0.46243503,318.93356)"
         clip-path="url(#clipPath3961)" />
      <path
         id="path3962"
         d="m 94.6188,311.1681 121.1882,-0.0592 c 7.7207,0 7.7207,0 15.3859,-5.3034 l 49.2029,-34.0424 c 12.7599,-8.8282 12.7599,-10.4014 12.7599,-18.3597 V 227.3 l -77.3567,54.2835 c -7.7496,5.4383 -7.7496,5.4383 -15.5052,5.4383 h -71.2653 z"
         style="fill:#49aced;fill-opacity:1;fill-rule:evenodd;stroke:none"
         transform="matrix(0.52035527,0,0,-0.52035527,-0.46243503,318.93356)"
         clip-path="url(#clipPath3963)" />
    </g>
  </g>
</svg>
